<svg xmlns="http://www.w3.org/2000/svg" xmlns:xlink="http://www.w3.org/1999/xlink" width="500" zoomAndPan="magnify" viewBox="0 0 375 374.999991" height="500" preserveAspectRatio="xMidYMid meet" version="1.0"><defs><g/><clipPath id="a9584ed0c7"><path d="M 136.566406 149.320312 L 208 149.320312 L 208 202.570312 L 136.566406 202.570312 Z M 136.566406 149.320312 " clip-rule="nonzero"/></clipPath><clipPath id="0e89b42071"><path d="M 190 149.320312 L 238.566406 149.320312 L 238.566406 202.570312 L 190 202.570312 Z M 190 149.320312 " clip-rule="nonzero"/></clipPath></defs><g clip-path="url(#a9584ed0c7)"><path fill="#ffffff" d="M 173.558594 149.320312 L 136.582031 202.433594 L 174.996094 202.433594 L 186.164062 186.390625 L 182.457031 180.4375 L 171.628906 195.988281 L 148.917969 195.988281 L 173.355469 160.886719 L 200.148438 202.433594 L 207.945312 202.433594 Z M 173.558594 149.320312 " fill-opacity="1" fill-rule="nonzero"/></g><g clip-path="url(#0e89b42071)"><path fill="#000000" d="M 204.121094 149.320312 L 190.296875 169.175781 L 194.070312 175.03125 L 203.917969 160.886719 L 230.734375 202.433594 L 238.410156 202.433594 Z M 204.121094 149.320312 " fill-opacity="1" fill-rule="nonzero"/></g><g fill="#ffffff" fill-opacity="1"><g transform="translate(97.737815, 233.84764)"><g><path d="M 25.625 -23.078125 C 26.550781 -23.078125 27.1875 -22.773438 27.53125 -22.171875 C 27.820312 -21.648438 27.96875 -20.742188 27.96875 -19.453125 L 27.96875 -0.953125 C 27.96875 -0.523438 27.863281 -0.253906 27.65625 -0.140625 C 27.457031 -0.0234375 27.289062 0.03125 27.15625 0.03125 L 24.75 0.03125 C 24.632812 0.03125 24.472656 -0.0234375 24.265625 -0.140625 C 24.066406 -0.253906 23.96875 -0.523438 23.96875 -0.953125 L 23.96875 -17.78125 C 23.96875 -17.800781 23.96875 -17.816406 23.96875 -17.828125 C 23.96875 -17.835938 23.96875 -17.84375 23.96875 -17.84375 L 23.828125 -17.84375 C 23.785156 -17.84375 23.765625 -17.820312 23.765625 -17.78125 L 18.953125 -5.90625 C 18.765625 -5.332031 18.570312 -4.828125 18.375 -4.390625 C 18.28125 -4.191406 18.171875 -4.003906 18.046875 -3.828125 C 17.921875 -3.660156 17.804688 -3.503906 17.703125 -3.359375 C 17.421875 -3.054688 17.117188 -2.851562 16.796875 -2.75 C 16.503906 -2.632812 16.132812 -2.578125 15.6875 -2.578125 L 14.53125 -2.578125 C 14.125 -2.578125 13.75 -2.632812 13.40625 -2.75 C 13.238281 -2.800781 13.082031 -2.878906 12.9375 -2.984375 C 12.800781 -3.097656 12.660156 -3.222656 12.515625 -3.359375 C 12.273438 -3.660156 12.050781 -4.003906 11.84375 -4.390625 C 11.65625 -4.828125 11.457031 -5.332031 11.25 -5.90625 L 6.46875 -17.75 C 6.445312 -17.8125 6.421875 -17.84375 6.390625 -17.84375 L 6.25 -17.84375 C 6.25 -17.84375 6.25 -17.835938 6.25 -17.828125 C 6.25 -17.816406 6.25 -17.800781 6.25 -17.78125 L 6.25 -0.953125 C 6.25 -0.523438 6.148438 -0.253906 5.953125 -0.140625 C 5.753906 -0.0234375 5.585938 0.03125 5.453125 0.03125 L 3.046875 0.03125 C 2.921875 0.03125 2.753906 -0.0234375 2.546875 -0.140625 C 2.335938 -0.253906 2.234375 -0.523438 2.234375 -0.953125 L 2.234375 -19.453125 C 2.234375 -20.742188 2.382812 -21.648438 2.6875 -22.171875 C 3.019531 -22.773438 3.664062 -23.078125 4.625 -23.078125 L 7.203125 -23.078125 C 7.609375 -23.078125 7.929688 -23.035156 8.171875 -22.953125 C 8.492188 -22.859375 8.753906 -22.722656 8.953125 -22.546875 C 9.046875 -22.429688 9.144531 -22.304688 9.25 -22.171875 C 9.351562 -22.046875 9.441406 -21.898438 9.515625 -21.734375 C 9.585938 -21.554688 9.664062 -21.359375 9.75 -21.140625 C 9.84375 -20.929688 9.925781 -20.695312 10 -20.4375 L 14.921875 -8.0625 C 14.941406 -8.007812 14.960938 -7.976562 14.984375 -7.96875 C 15.003906 -7.957031 15.015625 -7.953125 15.015625 -7.953125 L 15.28125 -7.953125 C 15.320312 -7.953125 15.351562 -7.988281 15.375 -8.0625 L 20.328125 -20.4375 C 20.421875 -20.695312 20.503906 -20.929688 20.578125 -21.140625 C 20.648438 -21.359375 20.722656 -21.554688 20.796875 -21.734375 C 20.890625 -21.898438 20.984375 -22.046875 21.078125 -22.171875 C 21.171875 -22.304688 21.265625 -22.429688 21.359375 -22.546875 C 21.585938 -22.742188 21.84375 -22.878906 22.125 -22.953125 C 22.363281 -23.035156 22.6875 -23.078125 23.09375 -23.078125 Z M 25.625 -23.078125 "/></g></g></g><g fill="#ffffff" fill-opacity="1"><g transform="translate(129.345502, 233.84764)"><g><path d="M 17.25 -20.46875 L 25.109375 -1.0625 C 25.222656 -0.800781 25.253906 -0.578125 25.203125 -0.390625 C 25.179688 -0.316406 25.128906 -0.226562 25.046875 -0.125 C 24.960938 -0.0195312 24.804688 0.03125 24.578125 0.03125 L 21.59375 0.03125 C 21.195312 0.03125 20.925781 -0.175781 20.78125 -0.59375 L 13.828125 -17.921875 C 13.804688 -17.953125 13.796875 -17.96875 13.796875 -17.96875 L 13.6875 -17.96875 C 13.6875 -17.96875 13.679688 -17.960938 13.671875 -17.953125 C 13.660156 -17.953125 13.648438 -17.929688 13.640625 -17.890625 L 10.046875 -8.8125 L 13.53125 -8.8125 C 13.914062 -8.8125 14.1875 -8.628906 14.34375 -8.265625 L 15.34375 -5.765625 C 15.4375 -5.453125 15.398438 -5.179688 15.234375 -4.953125 C 15.085938 -4.691406 14.84375 -4.5625 14.5 -4.5625 L 8.375 -4.5625 L 6.78125 -0.5625 C 6.625 -0.164062 6.359375 0.03125 5.984375 0.03125 L 2.90625 0.03125 C 2.6875 0.03125 2.535156 -0.0195312 2.453125 -0.125 C 2.367188 -0.226562 2.316406 -0.316406 2.296875 -0.390625 C 2.242188 -0.554688 2.265625 -0.78125 2.359375 -1.0625 L 10.15625 -20.46875 C 10.53125 -21.457031 10.941406 -22.140625 11.390625 -22.515625 C 11.453125 -22.546875 11.519531 -22.585938 11.59375 -22.640625 C 11.664062 -22.703125 11.738281 -22.753906 11.8125 -22.796875 C 12.375 -23.179688 13.019531 -23.375 13.75 -23.375 C 14.507812 -23.375 15.195312 -23.140625 15.8125 -22.671875 C 16.4375 -22.210938 16.859375 -21.617188 17.078125 -20.890625 C 17.117188 -20.828125 17.148438 -20.757812 17.171875 -20.6875 C 17.203125 -20.613281 17.226562 -20.539062 17.25 -20.46875 Z M 17.25 -20.46875 "/></g></g></g><g fill="#ffffff" fill-opacity="1"><g transform="translate(158.237563, 233.84764)"><g><path d="M 21.34375 -16.375 L 21.34375 -16.21875 C 21.34375 -16.226562 21.34375 -16.238281 21.34375 -16.25 C 21.34375 -16.257812 21.34375 -16.273438 21.34375 -16.296875 C 21.34375 -16.316406 21.34375 -16.332031 21.34375 -16.34375 C 21.34375 -16.351562 21.34375 -16.363281 21.34375 -16.375 Z M 21.875 -1.203125 C 21.976562 -1.054688 22.015625 -0.832031 21.984375 -0.53125 C 21.921875 -0.15625 21.707031 0.03125 21.34375 0.03125 L 18.25 0.03125 C 18.007812 0.03125 17.816406 -0.0234375 17.671875 -0.140625 C 17.609375 -0.179688 17.550781 -0.238281 17.5 -0.3125 C 17.457031 -0.382812 17.410156 -0.457031 17.359375 -0.53125 L 12.296875 -9.515625 L 6.390625 -9.515625 L 6.390625 -0.953125 C 6.390625 -0.523438 6.289062 -0.253906 6.09375 -0.140625 C 5.894531 -0.0234375 5.726562 0.03125 5.59375 0.03125 L 3.046875 0.03125 C 2.921875 0.03125 2.753906 -0.0234375 2.546875 -0.140625 C 2.335938 -0.253906 2.234375 -0.523438 2.234375 -0.953125 L 2.234375 -12.71875 C 2.234375 -13.144531 2.335938 -13.40625 2.546875 -13.5 C 2.753906 -13.601562 2.921875 -13.65625 3.046875 -13.65625 L 15.234375 -13.65625 C 15.941406 -13.65625 16.4375 -13.863281 16.71875 -14.28125 C 17.019531 -14.6875 17.171875 -15.359375 17.171875 -16.296875 C 17.171875 -17.234375 17.019531 -17.90625 16.71875 -18.3125 C 16.4375 -18.71875 15.941406 -18.921875 15.234375 -18.921875 L 3.046875 -18.921875 C 2.921875 -18.921875 2.753906 -18.972656 2.546875 -19.078125 C 2.335938 -19.179688 2.234375 -19.445312 2.234375 -19.875 L 2.234375 -22.09375 C 2.234375 -22.539062 2.335938 -22.816406 2.546875 -22.921875 C 2.753906 -23.023438 2.921875 -23.078125 3.046875 -23.078125 L 15.953125 -23.078125 C 17.878906 -23.078125 19.265625 -22.476562 20.109375 -21.28125 C 20.910156 -20.125 21.320312 -18.460938 21.34375 -16.296875 C 21.320312 -14.128906 20.910156 -12.46875 20.109375 -11.3125 C 19.398438 -10.34375 18.351562 -9.773438 16.96875 -9.609375 Z M 21.875 -1.203125 "/></g></g></g><g fill="#ffffff" fill-opacity="1"><g transform="translate(183.882066, 233.84764)"><g><path d="M 15.65625 -9.609375 L 20.5 -1.203125 C 20.613281 -1.078125 20.648438 -0.863281 20.609375 -0.5625 C 20.566406 -0.164062 20.351562 0.03125 19.96875 0.03125 L 16.9375 0.03125 C 16.65625 0.03125 16.460938 -0.0234375 16.359375 -0.140625 C 16.242188 -0.234375 16.140625 -0.363281 16.046875 -0.53125 L 11.671875 -8.203125 C 11.378906 -8.765625 11.070312 -9.128906 10.75 -9.296875 C 10.4375 -9.484375 9.929688 -9.578125 9.234375 -9.578125 L 6.40625 -9.578125 L 6.40625 -0.953125 C 6.40625 -0.523438 6.300781 -0.253906 6.09375 -0.140625 C 5.894531 -0.0234375 5.738281 0.03125 5.625 0.03125 L 3.046875 0.03125 C 2.941406 0.03125 2.78125 -0.0234375 2.5625 -0.140625 C 2.34375 -0.253906 2.234375 -0.523438 2.234375 -0.953125 L 2.234375 -22.09375 C 2.234375 -22.539062 2.34375 -22.816406 2.5625 -22.921875 C 2.78125 -23.023438 2.941406 -23.078125 3.046875 -23.078125 L 5.625 -23.078125 C 5.738281 -23.078125 5.894531 -23.023438 6.09375 -22.921875 C 6.300781 -22.816406 6.40625 -22.539062 6.40625 -22.09375 L 6.40625 -13.71875 L 8.984375 -13.71875 C 9.171875 -13.71875 9.335938 -13.722656 9.484375 -13.734375 C 9.640625 -13.742188 9.773438 -13.757812 9.890625 -13.78125 C 10.109375 -13.8125 10.300781 -13.863281 10.46875 -13.9375 C 10.632812 -14.03125 10.785156 -14.164062 10.921875 -14.34375 C 10.992188 -14.425781 11.070312 -14.53125 11.15625 -14.65625 C 11.238281 -14.78125 11.316406 -14.90625 11.390625 -15.03125 L 15.625 -22.515625 C 15.695312 -22.660156 15.800781 -22.789062 15.9375 -22.90625 C 16.039062 -23.019531 16.242188 -23.078125 16.546875 -23.078125 L 19.3125 -23.078125 C 19.65625 -23.078125 19.875 -22.914062 19.96875 -22.59375 C 20 -22.351562 19.96875 -22.128906 19.875 -21.921875 L 15.265625 -13.796875 C 14.984375 -13.335938 14.726562 -12.921875 14.5 -12.546875 C 14.40625 -12.410156 14.316406 -12.28125 14.234375 -12.15625 C 14.148438 -12.039062 14.0625 -11.925781 13.96875 -11.8125 C 14.25 -11.550781 14.53125 -11.234375 14.8125 -10.859375 C 15.09375 -10.484375 15.375 -10.066406 15.65625 -9.609375 Z M 15.65625 -9.609375 "/></g></g></g><g fill="#ffffff" fill-opacity="1"><g transform="translate(208.154754, 233.84764)"><g><path d="M 19.0625 -5.015625 C 19.195312 -5.015625 19.363281 -4.960938 19.5625 -4.859375 C 19.769531 -4.753906 19.875 -4.488281 19.875 -4.0625 L 19.875 -0.984375 C 19.875 -0.554688 19.769531 -0.289062 19.5625 -0.1875 C 19.363281 -0.0820312 19.195312 -0.03125 19.0625 -0.03125 L 9.125 -0.03125 C 8.507812 -0.03125 7.941406 -0.0664062 7.421875 -0.140625 C 6.898438 -0.210938 6.421875 -0.332031 5.984375 -0.5 C 5.078125 -0.820312 4.351562 -1.335938 3.8125 -2.046875 C 3.25 -2.773438 2.847656 -3.6875 2.609375 -4.78125 C 2.515625 -5.25 2.429688 -5.765625 2.359375 -6.328125 C 2.296875 -6.890625 2.253906 -7.492188 2.234375 -8.140625 L 2.234375 -8.28125 L 2.296875 -11.8125 C 2.347656 -12.019531 2.453125 -12.253906 2.609375 -12.515625 C 3.015625 -13.242188 3.648438 -13.632812 4.515625 -13.6875 L 18.953125 -13.71875 C 19.066406 -13.71875 19.222656 -13.664062 19.421875 -13.5625 C 19.628906 -13.457031 19.734375 -13.191406 19.734375 -12.765625 L 19.734375 -10.5625 C 19.734375 -10.125 19.628906 -9.847656 19.421875 -9.734375 C 19.222656 -9.628906 19.066406 -9.578125 18.953125 -9.578125 L 6.4375 -9.578125 C 6.4375 -9.578125 6.429688 -9.472656 6.421875 -9.265625 C 6.410156 -9.054688 6.398438 -8.820312 6.390625 -8.5625 C 6.390625 -8.300781 6.390625 -8.066406 6.390625 -7.859375 C 6.390625 -7.660156 6.390625 -7.5625 6.390625 -7.5625 C 6.398438 -7.488281 6.40625 -7.410156 6.40625 -7.328125 C 6.40625 -7.242188 6.414062 -7.160156 6.4375 -7.078125 C 6.507812 -6.554688 6.671875 -6.140625 6.921875 -5.828125 C 7.140625 -5.546875 7.414062 -5.335938 7.75 -5.203125 C 7.957031 -5.148438 8.175781 -5.101562 8.40625 -5.0625 C 8.644531 -5.03125 8.914062 -5.015625 9.21875 -5.015625 Z M 4.703125 -13.46875 Z M 19.09375 -23.125 C 19.207031 -23.125 19.363281 -23.066406 19.5625 -22.953125 C 19.769531 -22.847656 19.875 -22.578125 19.875 -22.140625 L 19.875 -19.9375 C 19.875 -19.507812 19.769531 -19.238281 19.5625 -19.125 C 19.363281 -19.007812 19.207031 -18.953125 19.09375 -18.953125 L 3 -18.984375 C 2.882812 -18.984375 2.726562 -19.035156 2.53125 -19.140625 C 2.332031 -19.242188 2.234375 -19.507812 2.234375 -19.9375 L 2.234375 -22.125 C 2.234375 -22.570312 2.332031 -22.847656 2.53125 -22.953125 C 2.726562 -23.066406 2.882812 -23.125 3 -23.125 Z M 19.09375 -23.125 "/></g></g></g><g fill="#ffffff" fill-opacity="1"><g transform="translate(231.671548, 233.84764)"><g><path d="M 21.359375 -17.859375 C 21.640625 -16.679688 21.78125 -15.300781 21.78125 -13.71875 L 21.78125 -9.328125 C 21.78125 -7.734375 21.640625 -6.351562 21.359375 -5.1875 C 21.234375 -4.601562 21.050781 -4.0625 20.8125 -3.5625 C 20.582031 -3.070312 20.316406 -2.640625 20.015625 -2.265625 C 19.398438 -1.484375 18.609375 -0.90625 17.640625 -0.53125 C 16.691406 -0.15625 15.5625 0.03125 14.25 0.03125 L 4.671875 0.03125 C 4.242188 0.03125 3.835938 -0.0703125 3.453125 -0.28125 C 3.078125 -0.5 2.773438 -0.796875 2.546875 -1.171875 C 2.398438 -1.429688 2.296875 -1.722656 2.234375 -2.046875 L 2.265625 -21.171875 C 2.304688 -21.285156 2.347656 -21.398438 2.390625 -21.515625 C 2.441406 -21.640625 2.492188 -21.757812 2.546875 -21.875 C 2.992188 -22.59375 3.640625 -22.984375 4.484375 -23.046875 L 4.484375 -23.078125 L 14.25 -23.078125 C 15.539062 -23.078125 16.671875 -22.890625 17.640625 -22.515625 C 18.585938 -22.140625 19.378906 -21.566406 20.015625 -20.796875 C 20.316406 -20.410156 20.582031 -19.972656 20.8125 -19.484375 C 21.050781 -19.003906 21.234375 -18.460938 21.359375 -17.859375 Z M 6.359375 -4.28125 C 6.359375 -4.226562 6.363281 -4.191406 6.375 -4.171875 C 6.382812 -4.148438 6.390625 -4.140625 6.390625 -4.140625 L 14.171875 -4.140625 C 14.484375 -4.140625 14.78125 -4.15625 15.0625 -4.1875 C 15.34375 -4.226562 15.59375 -4.289062 15.8125 -4.375 C 16.25 -4.539062 16.597656 -4.789062 16.859375 -5.125 C 17.140625 -5.5 17.332031 -5.984375 17.4375 -6.578125 C 17.5 -6.898438 17.546875 -7.25 17.578125 -7.625 C 17.617188 -8.007812 17.640625 -8.4375 17.640625 -8.90625 L 17.640625 -14.140625 C 17.640625 -14.609375 17.617188 -15.035156 17.578125 -15.421875 C 17.546875 -15.816406 17.5 -16.171875 17.4375 -16.484375 C 17.332031 -17.085938 17.140625 -17.566406 16.859375 -17.921875 C 16.628906 -18.253906 16.28125 -18.503906 15.8125 -18.671875 C 15.363281 -18.835938 14.816406 -18.921875 14.171875 -18.921875 L 6.40625 -18.921875 C 6.375 -18.921875 6.359375 -18.867188 6.359375 -18.765625 Z M 6.359375 -4.28125 "/></g></g></g><g fill="#ffffff" fill-opacity="1"><g transform="translate(257.092079, 233.84764)"><g><path d="M 5.59375 -23.078125 C 5.707031 -23.078125 5.867188 -23.019531 6.078125 -22.90625 C 6.285156 -22.789062 6.390625 -22.519531 6.390625 -22.09375 L 6.390625 -0.953125 C 6.390625 -0.523438 6.285156 -0.253906 6.078125 -0.140625 C 5.867188 -0.0234375 5.707031 0.03125 5.59375 0.03125 L 3.03125 0.03125 C 2.914062 0.03125 2.753906 -0.0234375 2.546875 -0.140625 C 2.335938 -0.253906 2.234375 -0.523438 2.234375 -0.953125 L 2.234375 -22.09375 C 2.234375 -22.519531 2.335938 -22.789062 2.546875 -22.90625 C 2.753906 -23.019531 2.914062 -23.078125 3.03125 -23.078125 Z M 5.59375 -23.078125 "/></g></g></g><g fill="#ffffff" fill-opacity="1"><g transform="translate(267.114711, 233.84764)"><g><path d="M 17.25 -20.46875 L 25.109375 -1.0625 C 25.222656 -0.800781 25.253906 -0.578125 25.203125 -0.390625 C 25.179688 -0.316406 25.128906 -0.226562 25.046875 -0.125 C 24.960938 -0.0195312 24.804688 0.03125 24.578125 0.03125 L 21.59375 0.03125 C 21.195312 0.03125 20.925781 -0.175781 20.78125 -0.59375 L 13.828125 -17.921875 C 13.804688 -17.953125 13.796875 -17.96875 13.796875 -17.96875 L 13.6875 -17.96875 C 13.6875 -17.96875 13.679688 -17.960938 13.671875 -17.953125 C 13.660156 -17.953125 13.648438 -17.929688 13.640625 -17.890625 L 10.046875 -8.8125 L 13.53125 -8.8125 C 13.914062 -8.8125 14.1875 -8.628906 14.34375 -8.265625 L 15.34375 -5.765625 C 15.4375 -5.453125 15.398438 -5.179688 15.234375 -4.953125 C 15.085938 -4.691406 14.84375 -4.5625 14.5 -4.5625 L 8.375 -4.5625 L 6.78125 -0.5625 C 6.625 -0.164062 6.359375 0.03125 5.984375 0.03125 L 2.90625 0.03125 C 2.6875 0.03125 2.535156 -0.0195312 2.453125 -0.125 C 2.367188 -0.226562 2.316406 -0.316406 2.296875 -0.390625 C 2.242188 -0.554688 2.265625 -0.78125 2.359375 -1.0625 L 10.15625 -20.46875 C 10.53125 -21.457031 10.941406 -22.140625 11.390625 -22.515625 C 11.453125 -22.546875 11.519531 -22.585938 11.59375 -22.640625 C 11.664062 -22.703125 11.738281 -22.753906 11.8125 -22.796875 C 12.375 -23.179688 13.019531 -23.375 13.75 -23.375 C 14.507812 -23.375 15.195312 -23.140625 15.8125 -22.671875 C 16.4375 -22.210938 16.859375 -21.617188 17.078125 -20.890625 C 17.117188 -20.828125 17.148438 -20.757812 17.171875 -20.6875 C 17.203125 -20.613281 17.226562 -20.539062 17.25 -20.46875 Z M 17.25 -20.46875 "/></g></g></g></svg>